<svg width="123" height="23" viewBox="0 0 123 23" fill="none" xmlns="http://www.w3.org/2000/svg">
<path d="M6.1402 19.0024C7.7782 19.0024 9.1352 18.6424 10.2102 17.9224C11.2852 17.2014 11.8232 16.1534 11.8232 14.7784C11.7402 12.9234 10.3592 11.5324 7.6792 10.6054L6.2392 10.0084C5.9252 9.90843 5.7012 9.81043 5.5692 9.71043C5.5082 9.6692 5.45825 9.61363 5.42373 9.5486C5.38921 9.48357 5.37117 9.41106 5.3712 9.33743C5.3712 8.92343 5.6442 8.71743 6.1902 8.71743C6.8682 8.71743 7.3722 9.06443 7.7032 9.76043L11.4012 8.71643C10.5082 6.49643 8.7872 5.38743 6.2392 5.38743C4.7172 5.38743 3.4512 5.78543 2.4422 6.58043C1.4332 7.37443 0.928203 8.41043 0.928203 9.68443C0.928203 10.0824 0.986203 10.4504 1.1022 10.7904C1.2182 11.1304 1.3922 11.4284 1.6232 11.6844C1.8552 11.9414 2.0782 12.1644 2.2932 12.3554C2.5082 12.5454 2.7812 12.7244 3.1132 12.8894C3.4432 13.0554 3.6952 13.1754 3.8692 13.2494C4.0432 13.3244 4.2792 13.4114 4.5762 13.5104L4.9982 13.6604L6.4882 14.2064C6.8512 14.3394 7.0882 14.4504 7.1952 14.5414C7.24749 14.5853 7.28907 14.6406 7.31679 14.7029C7.34452 14.7653 7.35766 14.8332 7.3552 14.9014C7.3552 15.3324 6.9512 15.5484 6.1402 15.5484C4.9492 15.5484 4.2372 15.0184 4.0062 13.9584L0.283203 14.8034C0.746203 17.6034 2.6992 19.0034 6.1402 19.0034V19.0024ZM17.7762 19.0024C19.4142 19.0024 20.6212 18.3724 21.3992 17.1144V18.7294H26.5112V5.66043H21.3992V12.8164C21.3992 14.2904 20.8942 15.0264 19.8852 15.0264C18.8592 15.0264 18.3462 14.2904 18.3462 12.8164V5.66043H13.2342V13.3134C13.2342 17.1064 14.7482 19.0034 17.7762 19.0034V19.0024ZM33.8792 18.7294V11.5744C33.8792 10.0994 34.3832 9.36243 35.3922 9.36243C36.4182 9.36243 36.9322 10.0994 36.9322 11.5744V18.7294H42.0432V11.0774C42.0432 7.28443 40.5302 5.38743 37.5022 5.38743C35.8642 5.38743 34.6562 6.01743 33.8792 7.27543V5.66043H28.7662V18.7294H33.8792ZM49.2622 18.7294V11.5744C49.2622 10.0994 49.7662 9.36243 50.7762 9.36243C51.8012 9.36243 52.3142 10.0994 52.3142 11.5744V18.7294H57.4272V11.0774C57.4272 7.28443 55.9132 5.38743 52.8852 5.38743C51.2472 5.38743 50.0392 6.01743 49.2622 7.27543V5.66043H44.1492V18.7294H49.2622ZM65.2412 24.2944L73.5302 5.66043H68.1932L65.6612 12.3444L63.4032 5.66043H57.8192L63.2542 17.4624L60.2272 24.2944H65.2412ZM78.9112 19.0024C80.5492 19.0024 81.9062 18.6424 82.9812 17.9224C84.0572 17.2014 84.5952 16.1534 84.5952 14.7784C84.5122 12.9234 83.1302 11.5324 80.4502 10.6054L79.0102 10.0084C78.6962 9.90843 78.4732 9.81043 78.3402 9.71043C78.2792 9.6692 78.2293 9.61363 78.1947 9.5486C78.1602 9.48357 78.1422 9.41106 78.1422 9.33743C78.1422 8.92343 78.4152 8.71743 78.9612 8.71743C79.6392 8.71743 80.1442 9.06443 80.4752 9.76043L84.1732 8.71643C83.2792 6.49643 81.5592 5.38743 79.0112 5.38743C77.4892 5.38743 76.2232 5.78543 75.2142 6.58043C74.2042 7.37543 73.7002 8.41043 73.7002 9.68543C73.7002 10.0834 73.7582 10.4514 73.8732 10.7914C73.9892 11.1314 74.1632 11.4294 74.3952 11.6854C74.6262 11.9424 74.8502 12.1654 75.0652 12.3564C75.2802 12.5464 75.5532 12.7254 75.8842 12.8904C76.2142 13.0564 76.4672 13.1764 76.6412 13.2504C76.8142 13.3254 77.0512 13.4124 77.3482 13.5114L77.7702 13.6614L79.2592 14.2074C79.6232 14.3404 79.8592 14.4514 79.9662 14.5424C80.0187 14.5862 80.0604 14.6414 80.0883 14.7038C80.1162 14.7662 80.1295 14.8341 80.1272 14.9024C80.1272 15.3334 79.7222 15.5494 78.9112 15.5494C77.7212 15.5494 77.0092 15.0194 76.7772 13.9594L73.0542 14.8034C73.5182 17.6034 75.4702 19.0034 78.9112 19.0034V19.0024ZM88.7112 4.86543C89.6212 4.86543 90.3242 4.65043 90.8212 4.21943C91.3162 3.78943 91.5652 3.24243 91.5652 2.57943C91.5652 1.90143 91.3252 1.34943 90.8452 0.928434C90.3652 0.504434 89.6542 0.294434 88.7112 0.294434C87.7682 0.294434 87.0562 0.505434 86.5762 0.928434C86.0962 1.35043 85.8562 1.90143 85.8562 2.58043C85.8562 3.24243 86.1052 3.78943 86.6012 4.22043C87.0982 4.65043 87.8012 4.86543 88.7112 4.86543ZM91.2672 18.7294V5.66043H86.1532V18.7294H91.2662H91.2672ZM99.0072 19.0024C100.744 19.0024 101.984 18.3724 102.729 17.1144V18.7294H107.841V0.766434H102.729V7.30043C101.984 6.02543 100.744 5.38743 99.0062 5.38743C97.2532 5.38743 95.7922 6.02943 94.6262 7.31343C93.4602 8.59643 92.8762 10.2234 92.8762 12.1954C92.8762 14.1654 93.4602 15.7934 94.6262 17.0774C95.7922 18.3604 97.2532 19.0024 99.0062 19.0024H99.0072ZM100.397 15.1024C99.6682 15.1024 99.0852 14.8284 98.6472 14.2824C98.2082 13.7354 97.9892 13.0394 97.9892 12.1954C97.9892 11.3504 98.2042 10.6554 98.6342 10.1084C99.0812 9.56143 99.6682 9.28843 100.396 9.28843C101.124 9.28843 101.707 9.56143 102.146 10.1084C102.584 10.6544 102.803 11.3504 102.803 12.1954C102.803 13.0394 102.584 13.7354 102.146 14.2824C101.707 14.8284 101.124 15.1024 100.396 15.1024H100.397ZM117.095 19.0024C119.692 19.0024 121.719 18.2484 123.175 16.7424L121.065 13.9094C120.023 14.7544 118.848 15.1764 117.541 15.1764C116.549 15.1764 115.742 14.9524 115.121 14.5064C114.501 14.0584 114.191 13.6274 114.191 13.2134H123.795C123.878 12.9154 123.919 12.5264 123.919 12.0464C123.919 9.99243 123.245 8.36943 121.897 7.17643C120.548 5.98343 118.824 5.38743 116.722 5.38743C114.472 5.38743 112.694 6.05843 111.387 7.40043C110.08 8.74143 109.426 10.3564 109.426 12.2444C109.426 14.1824 110.116 15.7934 111.498 17.0774C112.88 18.3604 114.745 19.0024 117.095 19.0024ZM119.303 10.8534H114.191C114.224 10.2404 114.489 9.77343 114.985 9.44943C115.481 9.12643 116.069 8.96543 116.747 8.96543C117.425 8.96543 118.013 9.13043 118.509 9.46243C119.006 9.79343 119.27 10.2574 119.303 10.8534Z" fill="white"/>
</svg>
